{
  "accessors": [
    {
      "bufferView": 2,
      "componentType": 5126,
      "count": 4537,
      "max": [
        0.82435131072998047,
        1.0247117280960083,
        2.5715765953063965
      ],
      "min": [
        -32.086502075195312,
        -1.0678756237030029,
        -0.69883900880813599
      ],
      "type": "VEC3"
    },
    {
      "bufferView": 2,
      "byteOffset": 54444,
      "componentType": 5126,
      "count": 4537,
      "max": [
        0.99800670146942139,
        1,
        1
      ],
      "min": [
        -0.99800783395767212,
        -1,
        -1
      ],
      "type": "VEC3"
    },
    {
      "bufferView": 3,
      "componentType": 5126,
      "count": 4537,
      "max": [
        1,
        1,
        0.99800670146942139,
        1
      ],
      "min": [
        -0.99981510639190674,
        -1,
        -0.99800670146942139,
        -1
      ],
      "type": "VEC4"
    },
    {
      "bufferView": 1,
      "componentType": 5126,
      "count": 4537,
      "max": [
        1,
        0.984375
      ],
      "min": [
        0,
        0
      ],
      "type": "VEC2"
    },
    {
      "bufferView": 0,
      "componentType": 5125,
      "count": 6042,
      "max": [
        4536
      ],
      "min": [
        0
      ],
      "type": "SCALAR"
    }
  ],
  "asset": {
    "extras": {
      "author": "Vinny Passmore (https://sketchfab.com/HPrendering)",
      "license": "CC-BY-4.0 (http://creativecommons.org/licenses/by/4.0/)",
      "source": "https://sketchfab.com/models/e7bd2c1fb6af4b2a824cdd8ac9bcf6ec",
      "title": "Flag With Pole"
    },
    "generator": "Sketchfab-3.51.0",
    "version": "2.0"
  },
  "bufferViews": [
    {
      "buffer": 0,
      "byteLength": 24168,
      "byteOffset": 0,
      "name": "floatBufferViews",
      "target": 34963
    },
    {
      "buffer": 0,
      "byteLength": 36296,
      "byteOffset": 24168,
      "byteStride": 8,
      "name": "floatBufferViews",
      "target": 34962
    },
    {
      "buffer": 0,
      "byteLength": 108888,
      "byteOffset": 60464,
      "byteStride": 12,
      "name": "floatBufferViews",
      "target": 34962
    },
    {
      "buffer": 0,
      "byteLength": 72592,
      "byteOffset": 169352,
      "byteStride": 16,
      "name": "floatBufferViews",
      "target": 34962
    }
  ],
  "buffers": [
    {
      "byteLength": 241944,
      "uri": "scene.bin"
    }
  ],
  "images": [
    {
      "uri": "textures/Scene_-_Root_baseColor.png"
    }
  ],
  "materials": [
    {
      "doubleSided": true,
      "name": "Scene_-_Root",
      "pbrMetallicRoughness": {
        "baseColorFactor": [
          1,
          1,
          1,
          1
        ],
        "baseColorTexture": {
          "index": 0,
          "texCoord": 0
        },
        "metallicFactor": 0.84412878790000001,
        "roughnessFactor": 0.57140151520000004
      }
    }
  ],
  "meshes": [
    {
      "name": "Cube.009__0",
      "primitives": [
        {
          "attributes": {
            "NORMAL": 1,
            "POSITION": 0,
            "TANGENT": 2,
            "TEXCOORD_0": 3
          },
          "indices": 4,
          "material": 0,
          "mode": 4
        }
      ]
    }
  ],
  "nodes": [
    {
      "children": [
        1
      ],
      "name": "RootNode (gltf orientation matrix)",
      "rotation": [
        -0.70710678118654746,
        -0,
        -0,
        0.70710678118654757
      ]
    },
    {
      "children": [
        2
      ],
      "matrix": [
        1,
        0,
        0,
        0,
        0,
        1,
        0,
        0,
        0,
        0,
        1,
        0,
        4.5979999185874476e-07,
        1.9860000577409664e-07,
        -1.7131200365838595e-05,
        1
      ],
      "name": "RootNode (model correction matrix)"
    },
    {
      "children": [
        3
      ],
      "matrix": [
        1,
        0,
        0,
        0,
        0,
        0,
        1,
        0,
        0,
        -1,
        0,
        0,
        0,
        0,
        0,
        1
      ],
      "name": "f5ba578188bd4d80a9b8a1fce4e57648.fbx"
    },
    {
      "children": [
        4
      ],
      "name": "RootNode"
    },
    {
      "children": [
        5
      ],
      "matrix": [
        4.9170231819152077,
        -8.5971963807835784e-07,
        -9.7965905052756586e-22,
        0,
        4.8129406005269333e-06,
        27.526811599730948,
        -2.0782163086806864e-06,
        0,
        9.1801446312631466e-13,
        5.2504306386271526e-06,
        69.544067382812301,
        0,
        0,
        0,
        0,
        1
      ],
      "name": "Cube.009"
    },
    {
      "mesh": 0,
      "name": "Cube.009__0"
    }
  ],
  "samplers": [
    {
      "magFilter": 9729,
      "minFilter": 9987,
      "wrapS": 10497,
      "wrapT": 10497
    }
  ],
  "scene": 0,
  "scenes": [
    {
      "name": "OSG_Scene",
      "nodes": [
        0
      ]
    }
  ],
  "textures": [
    {
      "sampler": 0,
      "source": 0
    }
  ]
}

