{"asset":{"generator":"3D Builder","version":"2.0"},"scene":0,"scenes":[{"nodes":[0]}],"nodes":[{"mesh":0,"matrix":[1,0,0,0,0,-1.1920928955078125E-7,-0.99999988079071045,0,0,0.99999988079071045,-1.1920928955078125E-7,0,-548.66357421875,99.999931335449219,-307.24502563476562,1]}],"meshes":[{"primitives":[{"attributes":{"POSITION":0,"TEXCOORD_0":1},"mode":4,"indices":2,"material":0}]}],"materials":[{"pbrMetallicRoughness":{"baseColorFactor":[1,1,1,1],"metallicFactor":0,"roughnessFactor":1,"baseColorTexture":{"index":0,"texCoord":0},"metallicRoughnessTexture":{"index":1,"texCoord":0}},"alphaMode":"OPAQUE"}],"textures":[{"source":0,"sampler":0},{"source":1,"sampler":0}],"images":[{"uri":"material_3_baseColor.png"},{"uri":"material_3_metallicRoughness_5607007607087937307.png"}],"samplers":[{"magFilter":9729,"wrapS":10497,"wrapT":10497}],"accessors":[{"bufferView":0,"byteOffset":0,"count":12744,"componentType":5126,"type":"VEC3","min":[500,-99.999984741210938,-99.999984741210938],"max":[700,99.999984741210938,99.999984741210938]},{"bufferView":1,"byteOffset":0,"count":12744,"componentType":5126,"type":"VEC2"},{"bufferView":2,"byteOffset":0,"count":73080,"componentType":5125,"type":"SCALAR"}],"bufferViews":[{"buffer":0,"byteOffset":0,"byteLength":152928,"byteStride":12,"target":34962},{"buffer":0,"byteOffset":152928,"byteLength":101952,"byteStride":8,"target":34962},{"buffer":0,"byteOffset":254880,"byteLength":292320,"target":34963}],"buffers":[{"byteLength":547200,"uri":"single_brick.bin"}]}